<svg xmlns="http://www.w3.org/2000/svg" xmlns:xlink="http://www.w3.org/1999/xlink" width="47.284" height="40.635" viewBox="0 0 47.284 40.635"><defs><style>.a{fill:url(#a);}.b{fill:url(#b);}.c{fill:url(#c);}.d{fill:url(#d);}.e{fill:url(#e);}</style><linearGradient id="a" y1="0.5" x2="1" y2="0.5" gradientUnits="objectBoundingBox"><stop offset="0"/><stop offset="0.547" stop-color="#39b54a"/></linearGradient><linearGradient id="b" y1="0.5" x2="1" y2="0.5" gradientUnits="objectBoundingBox"><stop offset="0"/><stop offset="0.007" stop-color="#010401"/><stop offset="0.08" stop-color="#0e2d12"/><stop offset="0.161" stop-color="#195221"/><stop offset="0.247" stop-color="#23702e"/><stop offset="0.34" stop-color="#2b8938"/><stop offset="0.445" stop-color="#319d40"/><stop offset="0.565" stop-color="#35aa45"/><stop offset="0.717" stop-color="#38b249"/><stop offset="1" stop-color="#39b54a"/></linearGradient><linearGradient id="c" y1="0.5" x2="1" y2="0.5" gradientUnits="objectBoundingBox"><stop offset="0" stop-color="#366626"/><stop offset="0.049" stop-color="#3c7530"/><stop offset="0.2" stop-color="#4c9f4d"/><stop offset="0.354" stop-color="#5ac166"/><stop offset="0.51" stop-color="#65dc78"/><stop offset="0.668" stop-color="#6cef86"/><stop offset="0.829" stop-color="#71fb8e"/><stop offset="1" stop-color="#73ff91"/></linearGradient><linearGradient id="d" y1="0.5" x2="1" y2="0.5" gradientUnits="objectBoundingBox"><stop offset="0" stop-color="#39b54a"/><stop offset="0.24" stop-color="#38b248"/><stop offset="0.392" stop-color="#35a945"/><stop offset="0.519" stop-color="#309b3f"/><stop offset="0.633" stop-color="#2a8636"/><stop offset="0.738" stop-color="#216b2b"/><stop offset="0.837" stop-color="#174a1e"/><stop offset="0.929" stop-color="#0b230e"/><stop offset="1"/></linearGradient><linearGradient id="e" y1="0.5" x2="1" y2="0.5" gradientUnits="objectBoundingBox"><stop offset="0" stop-color="#366626"/><stop offset="0.248" stop-color="#376827"/><stop offset="0.409" stop-color="#3a712d"/><stop offset="0.545" stop-color="#408038"/><stop offset="0.668" stop-color="#489547"/><stop offset="0.781" stop-color="#53b05a"/><stop offset="0.887" stop-color="#61d271"/><stop offset="0.986" stop-color="#70f88c"/><stop offset="1" stop-color="#73ff91"/></linearGradient></defs><path class="a" d="M9.1,0h37.68a.508.508,0,0,1,.508.508V2.386A7.219,7.219,0,0,1,40.066,9.6H.508A.508.508,0,0,1,0,9.1v0A9.1,9.1,0,0,1,9.1,0Z" transform="translate(0 15.515)"/><path class="b" d="M899.284,576.97h-39.25A8.036,8.036,0,0,1,852,568.935v-1.57h37.68A9.6,9.6,0,0,1,899.284,576.97Z" transform="translate(-852 -567.365)"/><path class="c" d="M915.77,576.97H899.24c-4.3-2.512-6.928-5.89-6.928-9.6h13.853A9.6,9.6,0,0,1,915.77,576.97Z" transform="translate(-868.485 -567.365)"/><g transform="translate(0 31.03)"><path class="d" d="M899.284,629.47h-39.25A8.036,8.036,0,0,1,852,621.435v-1.57h37.68A9.6,9.6,0,0,1,899.284,629.47Z" transform="translate(-852 -619.865)"/><path class="e" d="M877.412,629.47H860.035A8.036,8.036,0,0,1,852,621.435v-1.57h16.435C873.492,622.214,876.863,625.626,877.412,629.47Z" transform="translate(-852 -619.865)"/></g></svg>